<svg width="537" height="143" viewBox="0 0 537 143" fill="none" xmlns="http://www.w3.org/2000/svg">
<path d="M130.94 142.02C128.72 141.21 127.51 140.33 126.18 138.47C124.61 136.33 124.04 134.08 124.29 131.25C124.53 128.63 125.26 127.06 127.03 125.28C128.84 123.47 130.46 122.74 133.24 122.54C136.79 122.26 138.92 122.94 141.18 125.2C146.58 130.6 144.45 139.84 137.31 141.97C134.85 142.7 132.92 142.7 130.94 142.01V142.02ZM136.83 138.39C138.89 137.54 140.06 135.61 140.22 132.71C140.38 129.89 139.53 128.19 137.4 126.86C135.63 125.77 132.48 125.77 130.71 126.86C129.22 127.79 127.81 130.41 127.81 132.3C127.81 134.84 129.87 137.78 132.25 138.67C133.38 139.07 135.48 138.95 136.85 138.39H136.83Z" fill="#A0A0A0"/>
<path d="M201.94 141.981C200.93 141.661 199.44 140.811 198.59 140.091L197.06 138.761L198.23 137.671L199.36 136.581L201.13 137.751C203.35 139.241 206.33 139.441 207.62 138.151C209.27 136.501 208.14 134.921 204.52 133.881C199.64 132.471 197.95 130.941 197.95 127.951C197.95 123.391 203.76 120.971 208.72 123.431C211.74 124.961 212.03 125.451 210.66 126.861L209.53 128.031L208.44 127.221C206.18 125.531 202.31 125.571 201.79 127.301C201.39 128.511 202.52 129.441 205.62 130.441C207.07 130.921 208.81 131.651 209.53 132.091C213.68 134.631 212.39 140.881 207.39 142.131C205.21 142.691 204.25 142.651 201.95 141.971L201.94 141.981Z" fill="#A0A0A0"/>
<path d="M412.61 141.86C409.02 140.61 406.8 138.27 406 134.84C404.43 128.39 409.06 122.42 415.68 122.42C418.06 122.42 420.88 123.47 422.45 124.92C423.62 126.05 423.58 126.49 422.05 127.54L420.8 128.43L419.63 127.42C418.14 126.21 416.93 125.89 414.63 126.17C412.65 126.37 411.2 127.46 410.15 129.44C409.3 131.09 409.59 134.8 410.75 136.42C412.77 139.24 416.8 139.73 419.66 137.43L421.15 136.22L422.56 137.39L423.93 138.56L422.36 139.97C420.75 141.38 417.64 142.59 415.71 142.59C415.15 142.55 413.73 142.23 412.61 141.86Z" fill="#A0A0A0"/>
<path d="M475.34 141.74C474.25 139.76 476.15 137.87 478.12 138.96C479.17 139.48 479.33 141.94 478.32 142.35C477.03 142.83 475.78 142.59 475.34 141.75V141.74Z" fill="#A0A0A0"/>
<path d="M54.6199 141.701C54.5399 141.421 54.3 140.53 54.1 139.76C53.86 138.99 52.77 135.201 51.64 131.331C50.51 127.461 49.58 123.951 49.58 123.551C49.58 122.951 49.9 122.821 51.31 122.821H53.04L54.17 127.171C54.82 129.551 55.7 132.651 56.15 134.101C57.08 137.201 56.88 137.531 59.46 128.861L61.15 123.01L63 122.891L64.8499 122.771L65.5 124.911C68.64 135.681 69.09 136.97 69.41 136.12C69.69 135.39 70.4599 132.451 72.5999 124.351C72.9599 122.861 73.04 122.821 74.78 122.821C75.99 122.821 76.59 122.98 76.59 123.34C76.59 123.78 75.82 126.531 71.95 140.071L71.3 142.171H69.2H67.0999L66.2099 139.23C63.6299 130.52 63.19 129.231 62.94 129.471C62.78 129.591 61.8099 132.49 60.7999 135.84L58.91 141.971L56.85 142.09C55.44 142.17 54.71 142.051 54.59 141.691L54.6199 141.701Z" fill="#A0A0A0"/>
<path d="M91.91 132.51V122.83H93.72H95.53V126.66V130.49H100.17H104.81V126.66V122.83H106.62H108.43V132.51V142.19H106.62H104.81V138.16V134.13H100.17H95.53V138.16V142.19H93.72H91.91V132.51Z" fill="#A0A0A0"/>
<path d="M178.6 132.51V122.83H180.17C181.06 122.83 181.86 122.99 182.02 123.23C182.14 123.43 182.14 127.79 181.98 132.91L181.7 142.18H180.13H178.6V132.5V132.51Z" fill="#A0A0A0"/>
<path d="M250.77 134.12V126.06H247.71H244.69L244.81 124.57L244.93 123.04L252.71 122.92L260.45 122.84V124.45V126.06H257.43H254.41V134.12V142.18H252.6H250.79V134.12H250.77Z" fill="#A0A0A0"/>
<path d="M275.36 132.51V122.83H277.17H278.98V126.66V130.49H283.42H287.86V127.91C287.86 126.5 287.98 124.77 288.1 124.08C288.34 122.87 288.46 122.79 290.04 122.91L291.69 123.03V132.5L291.65 141.97L290 142.09L288.39 142.21L288.11 138.06C287.95 135.8 287.79 133.87 287.71 133.83C287.67 133.79 285.69 133.87 283.32 133.99L279.01 134.23V138.22V142.17H277.2H275.39V132.49L275.36 132.51Z" fill="#A0A0A0"/>
<path d="M308.1 132.631L308.22 123.031L314.99 122.911C322.33 122.791 322.53 122.871 321.97 125.051C321.73 126.061 321.73 126.061 316.69 126.061H311.65V128.281V130.501H315.92H320.15L320.03 132.231L319.91 133.921L315.76 134.041L311.61 134.161L311.73 136.461L311.85 138.761L317.01 138.881L322.13 139.001V140.571V142.181H315.07H308.01L308.09 132.621L308.1 132.631Z" fill="#A0A0A0"/>
<path d="M356.32 139.08C356.24 137.39 356.24 133.03 356.32 129.4L356.48 122.83H361.4C365.39 122.83 366.56 122.95 367.69 123.6C371.36 125.54 372.21 130.45 369.42 133.4C367.77 135.17 367.16 135.38 363.29 135.66L359.82 135.94L359.7 139.08L359.58 142.18H358.05H356.48L356.32 139.08ZM365.23 132.06C366.68 131.54 367.29 130.65 367.29 128.92C367.29 127.03 365.72 126.06 362.65 126.06H360.15L359.91 129C359.79 130.94 359.87 131.98 360.19 132.19C360.88 132.63 363.78 132.55 365.23 132.07V132.06Z" fill="#A0A0A0"/>
<path d="M386.56 140.49C386.44 139.52 386.4 135.21 386.4 130.89L386.44 123.03H388.25H390.06L389.94 132.1C389.9 137.1 389.86 141.41 389.86 141.7C389.86 141.98 389.3 142.18 388.29 142.18C386.76 142.18 386.72 142.14 386.56 140.49Z" fill="#A0A0A0"/>
<path d="M439.86 132.51V122.83H441.67H443.48V126.98L443.52 131.09L447.47 126.98L451.42 122.83H453.52C456.02 122.83 456.02 122.83 452.43 126.82C451.06 128.35 449.93 129.76 449.93 129.96C449.93 130.12 450.58 130.69 451.34 131.21C453.76 132.74 455.98 137.38 455.98 140.85C455.98 142.14 455.94 142.18 454.21 142.18H452.48L452.24 140.2C451.92 137.62 450.71 135.24 449.01 133.95C447.28 132.62 446.83 132.62 444.98 134.15L443.49 135.36V138.79V142.18H441.68H439.87V132.5L439.86 132.51Z" fill="#A0A0A0"/>
<path d="M475.34 135.851C475.34 134.561 475.66 134.081 477.72 132.141C480.34 129.641 480.74 128.911 480.22 127.501C479.37 125.321 476.35 125.321 474.01 127.581L472.92 128.631L471.63 127.381L470.34 126.091L471.83 124.681C475.06 121.661 480.1 121.701 482.68 124.761C485.02 127.541 484.21 131.371 480.83 133.751C479.82 134.481 478.81 135.561 478.61 136.211C478.29 137.181 478.01 137.341 476.8 137.341C475.39 137.341 475.35 137.301 475.35 135.851H475.34Z" fill="#A0A0A0"/>
<path d="M183.92 78.4807C177.51 77.1107 173.2 72.8007 171.7 66.1807C170.89 62.6707 170.89 16.0608 171.7 12.6007C172.55 8.77075 173.59 6.79075 175.97 4.50075C180.65 -0.0992484 188.71 -1.26925 196.21 1.52075C199.44 2.73075 203.1 6.40075 204.39 9.75075C205.28 11.9308 205.36 12.8108 205.36 18.8208L205.4 25.4708L201.17 26.1208C198.83 26.5208 195.81 26.9308 194.44 27.0908L191.94 27.3308L191.82 20.8808C191.7 14.7108 191.66 14.3907 190.73 13.4207C189.04 11.6107 186.29 12.1308 185.49 14.4308C184.89 16.2408 184.89 62.5308 185.49 64.3408C185.97 65.7508 186.9 66.4007 188.47 66.4007C191.53 66.4007 191.9 65.1107 191.9 54.6707C191.9 46.8507 191.94 46.2407 192.63 46.2407C193.8 46.2407 205.33 47.8908 205.69 48.0908C206.13 48.3708 206.09 61.1907 205.61 64.4607C204.6 71.3107 201.5 75.5908 195.81 77.7708C193.43 78.7408 186.82 79.1007 183.92 78.5007V78.4807Z" fill="url(#paint0_linear_2441_6)"/>
<path d="M452.89 78.2803C447.69 76.8303 443.9 73.6003 442.29 69.3303C440.8 65.3403 440.64 61.5103 440.76 36.9103C440.88 14.3703 440.92 13.2403 441.73 10.9003C442.82 7.7103 444.71 5.0103 447.05 3.2803C450.52 0.700299 456.61 -0.589701 461.24 0.260299C468.78 1.6303 472.93 5.3403 474.75 12.2303C475.52 15.2103 475.6 25.1703 474.87 25.4503C474.31 25.6503 463.18 27.2603 462.29 27.2603C461.89 27.2603 461.73 25.8503 461.56 20.8103C461.36 14.7203 461.28 14.2403 460.43 13.3503C458.54 11.3303 455.51 12.3803 454.99 15.2403C454.87 15.9703 454.79 27.4203 454.87 40.6803L454.99 64.8303L455.96 65.6003C457.33 66.7303 459.51 66.4903 460.52 65.1603C461.17 64.2703 461.25 63.1403 461.41 55.3203C461.49 49.0303 461.65 46.4103 462.01 46.2903C462.66 46.0903 475.07 47.8203 475.48 48.1803C475.68 48.3803 475.64 52.4903 475.4 57.3303C475 66.6403 474.55 68.9403 472.5 72.2903C471.29 74.2303 468.15 76.6403 465.4 77.6503C462.34 78.8203 455.93 79.1403 452.9 78.2503L452.89 78.2803Z" fill="url(#paint1_linear_2441_6)"/>
<path d="M0.0699997 39.4906L0.189995 1.35059L10.23 1.39058C20.87 1.43058 23.01 1.67059 26.28 3.33059C30.23 5.31059 32.49 8.17058 33.66 12.5606C34.43 15.5006 34.55 26.3506 33.82 29.7006C32.93 33.9306 30.39 37.3206 27.17 38.6106C26.08 39.0106 26.04 39.0906 26.77 39.5406C30.44 41.7606 31.29 42.5606 32.58 45.0606C34.03 47.9606 34.64 51.3906 34.68 56.7906C34.68 67.1106 32.02 73.0006 26.09 75.8206C22.82 77.3506 19.92 77.6706 9.6 77.6706H0L0.0800018 39.4906H0.0699997ZM18.13 65.0506C20.23 64.0006 20.55 62.5106 20.55 53.7606C20.55 44.8906 20.27 43.4806 18.17 42.4306C17.52 42.0706 16.23 41.7806 15.31 41.7806H13.7V53.6706V65.5606H15.43C16.36 65.5606 17.57 65.3206 18.13 65.0406V65.0506ZM18.82 35.9006C20.23 35.0106 20.55 32.8806 20.55 24.7306C20.55 15.9406 20.27 14.6906 17.89 13.7206C17.08 13.4006 15.87 13.1606 15.15 13.2406L13.9 13.3606L13.78 25.2106L13.7 37.0606L15.8 36.7806C16.97 36.6206 18.34 36.2206 18.82 35.8906V35.9006Z" fill="url(#paint2_linear_2441_6)"/>
<path d="M61.96 77.3907C61.6 77.0707 61.6 3.0007 61.92 2.1207C62.12 1.5607 63.13 1.4707 68.98 1.4707H75.79V33.5207V65.5307L82.16 65.6507L88.49 65.7707V71.6207V77.4707L75.35 77.5907C68.13 77.6307 62.13 77.5507 61.96 77.3907Z" fill="url(#paint3_linear_2441_6)"/>
<path d="M109.25 77.3503C109.25 77.1503 109.49 75.0502 109.81 72.5902C110.86 64.9302 114.08 37.5903 117.55 7.48025L118.24 1.55026L127.55 1.39025C132.67 1.31025 137.02 1.35025 137.19 1.47025C137.51 1.75025 138.36 8.49026 141.71 36.9503C142.72 45.7003 144.25 58.3203 145.1 64.9703C145.95 71.6203 146.55 77.1903 146.47 77.3903C146.39 77.5503 143.16 77.6702 139.33 77.6702H132.35L131.87 72.7503C131.63 70.0103 131.31 66.7403 131.14 65.4503L130.9 63.1103L127.84 63.2303L124.78 63.3503L124.26 69.2003C123.98 72.4303 123.66 75.6503 123.53 76.3803L123.33 77.6702H116.31C112.44 77.6702 109.25 77.5103 109.25 77.3503ZM130.46 56.2203C130.14 53.4003 128.2 31.3003 128.2 30.3403C128.2 29.8603 128.08 29.6903 127.84 29.9403C127.68 30.1403 127.03 36.3103 126.43 43.6103C125.83 50.9503 125.22 57.2403 125.14 57.6403C124.94 58.2403 125.26 58.3303 127.8 58.3303H130.7L130.46 56.2303V56.2203Z" fill="url(#paint4_linear_2441_6)"/>
<path d="M232.62 39.5707V1.4707H239.68H246.74L246.66 7.4007C246.42 19.5807 246.74 37.1107 247.14 36.7107C247.38 36.4707 248.87 28.4407 250.45 18.8907L253.31 1.4707H260.12C263.83 1.4707 266.89 1.6307 266.89 1.7907C266.89 2.1907 261.89 23.4407 259.63 32.6307L257.98 39.4007L260.64 50.1207C262.78 58.7507 266.89 76.7707 266.89 77.5007C266.89 77.5807 263.83 77.6607 260.12 77.6607H253.35L250.49 60.5207C248.88 51.0907 247.39 43.0607 247.18 42.6607C246.9 42.1807 246.74 47.0107 246.66 58.1007C246.62 66.9707 246.58 74.9507 246.54 75.8407V77.4507L239.61 77.5707L232.63 77.6507V39.5507L232.62 39.5707Z" fill="url(#paint5_linear_2441_6)"/>
<path d="M338.58 70.3404C338.38 57.8004 338.5 1.92043 338.74 1.68043C338.86 1.52043 343.86 1.44043 349.79 1.44043C361.68 1.44043 363.1 1.64043 366.56 3.86043C369.02 5.43043 371.12 8.62043 371.88 11.9604C372.77 15.5904 373.21 36.5104 372.57 41.8004C371.84 47.6904 369.71 51.7204 366.28 53.7304C363.66 55.2204 360.76 55.9104 356.52 55.9104H352.77L352.73 58.4504C352.69 59.8204 352.65 61.9604 352.61 63.1704C352.57 64.3804 352.53 68.1704 352.45 71.5604L352.37 77.6904H345.56H338.71L338.59 70.3504L338.58 70.3404ZM357.65 42.7604L358.62 41.7104L358.74 29.5704C358.86 16.2604 358.66 14.6104 356.8 13.6804C356.24 13.4004 355.11 13.1604 354.3 13.1604H352.77L352.73 18.5204C352.73 21.4204 352.65 26.1004 352.53 28.8804C352.41 31.6604 352.41 36.1404 352.57 38.8804L352.85 43.8004H354.74C356.27 43.8004 356.84 43.6004 357.64 42.7504L357.65 42.7604Z" fill="url(#paint6_linear_2441_6)"/>
<path d="M399.22 39.4905L399.34 1.27051L405.99 1.43051C409.66 1.47051 412.72 1.63051 412.84 1.71051C412.92 1.83051 413 18.8905 413.04 39.6905V77.4705L406.06 77.5905L399.13 77.6705L399.21 39.4905H399.22Z" fill="url(#paint7_linear_2441_6)"/>
<path d="M502.44 39.4905L502.56 1.27051H508.61C511.96 1.27051 514.98 1.31051 515.38 1.39051C516.03 1.51051 516.07 2.52051 516.07 15.3005C516.07 29.5705 516.39 37.2305 516.92 36.6705C517.24 36.3505 518.65 28.7705 520.06 19.8205C522.32 5.51051 522.96 1.72051 523.04 1.64051C523.24 1.44051 536.22 1.36051 536.43 1.56051C536.67 1.80051 536.47 2.77051 531.55 23.3705L527.68 39.3805L529.94 48.5705C532.8 60.3405 536.23 75.7405 536.23 76.8305C536.23 77.6405 536.03 77.6805 529.58 77.6805C524.58 77.6805 522.85 77.5605 522.77 77.2005C522.69 76.9205 521.4 69.0605 519.91 59.7405C518.42 50.4305 517.09 42.6405 516.93 42.4805C516.45 42.0005 516.08 51.9105 516.08 65.4605V77.6805H509.23H502.38L502.46 39.5005L502.44 39.4905Z" fill="url(#paint8_linear_2441_6)"/>
<defs>
<linearGradient id="paint0_linear_2441_6" x1="188.545" y1="0.0224609" x2="188.545" y2="78.7937" gradientUnits="userSpaceOnUse">
<stop offset="0.201923" stop-color="white"/>
<stop offset="0.5" stop-color="#9C9C9C"/>
<stop offset="0.802885" stop-color="white"/>
</linearGradient>
<linearGradient id="paint1_linear_2441_6" x1="458.168" y1="0" x2="458.168" y2="78.7608" gradientUnits="userSpaceOnUse">
<stop offset="0.201923" stop-color="white"/>
<stop offset="0.5" stop-color="#9C9C9C"/>
<stop offset="0.802885" stop-color="white"/>
</linearGradient>
<linearGradient id="paint2_linear_2441_6" x1="17.34" y1="1.35059" x2="17.34" y2="77.6706" gradientUnits="userSpaceOnUse">
<stop offset="0.201923" stop-color="white"/>
<stop offset="0.5" stop-color="#9C9C9C"/>
<stop offset="0.802885" stop-color="white"/>
</linearGradient>
<linearGradient id="paint3_linear_2441_6" x1="75.0874" y1="1.4707" x2="75.0874" y2="77.6009" gradientUnits="userSpaceOnUse">
<stop offset="0.201923" stop-color="white"/>
<stop offset="0.5" stop-color="#9C9C9C"/>
<stop offset="0.802885" stop-color="white"/>
</linearGradient>
<linearGradient id="paint4_linear_2441_6" x1="127.864" y1="1.34863" x2="127.864" y2="77.6702" gradientUnits="userSpaceOnUse">
<stop offset="0.201923" stop-color="white"/>
<stop offset="0.5" stop-color="#9C9C9C"/>
<stop offset="0.802885" stop-color="white"/>
</linearGradient>
<linearGradient id="paint5_linear_2441_6" x1="249.755" y1="1.4707" x2="249.755" y2="77.6607" gradientUnits="userSpaceOnUse">
<stop offset="0.201923" stop-color="white"/>
<stop offset="0.5" stop-color="#9C9C9C"/>
<stop offset="0.802885" stop-color="white"/>
</linearGradient>
<linearGradient id="paint6_linear_2441_6" x1="355.676" y1="1.44043" x2="355.676" y2="77.6904" gradientUnits="userSpaceOnUse">
<stop offset="0.201923" stop-color="white"/>
<stop offset="0.5" stop-color="#9C9C9C"/>
<stop offset="0.802885" stop-color="white"/>
</linearGradient>
<linearGradient id="paint7_linear_2441_6" x1="406.085" y1="1.27051" x2="406.085" y2="77.6705" gradientUnits="userSpaceOnUse">
<stop offset="0.201923" stop-color="white"/>
<stop offset="0.5" stop-color="#9C9C9C"/>
<stop offset="0.802885" stop-color="white"/>
</linearGradient>
<linearGradient id="paint8_linear_2441_6" x1="519.437" y1="1.27051" x2="519.437" y2="77.6805" gradientUnits="userSpaceOnUse">
<stop offset="0.201923" stop-color="white"/>
<stop offset="0.5" stop-color="#9C9C9C"/>
<stop offset="0.802885" stop-color="white"/>
</linearGradient>
</defs>
</svg>
