<svg width="537" height="129" viewBox="0 0 537 129" fill="none" xmlns="http://www.w3.org/2000/svg">
<path d="M183.92 78.4807C177.51 77.1107 173.2 72.8008 171.7 66.1807C170.89 62.6707 170.89 16.0607 171.7 12.6007C172.55 8.77075 173.59 6.79075 175.97 4.50075C180.65 -0.0992484 188.71 -1.26925 196.21 1.52075C199.44 2.73075 203.1 6.40075 204.39 9.75075C205.28 11.9308 205.36 12.8108 205.36 18.8208L205.4 25.4708L201.17 26.1208C198.83 26.5208 195.81 26.9308 194.44 27.0908L191.94 27.3308L191.82 20.8808C191.7 14.7108 191.66 14.3907 190.73 13.4207C189.04 11.6108 186.29 12.1308 185.49 14.4308C184.89 16.2408 184.89 62.5308 185.49 64.3408C185.97 65.7508 186.9 66.4007 188.47 66.4007C191.53 66.4007 191.9 65.1107 191.9 54.6707C191.9 46.8507 191.94 46.2407 192.63 46.2407C193.8 46.2407 205.33 47.8908 205.69 48.0908C206.13 48.3708 206.09 61.1907 205.61 64.4607C204.6 71.3107 201.5 75.5908 195.81 77.7708C193.43 78.7408 186.82 79.1007 183.92 78.5007V78.4807Z" fill="url(#paint0_linear_2441_6)"/>
<path d="M452.89 78.2803C447.69 76.8303 443.9 73.6003 442.29 69.3303C440.8 65.3403 440.64 61.5103 440.76 36.9103C440.88 14.3703 440.92 13.2403 441.73 10.9003C442.82 7.7103 444.71 5.0103 447.05 3.2803C450.52 0.700299 456.61 -0.589701 461.24 0.260299C468.78 1.6303 472.93 5.3403 474.75 12.2303C475.52 15.2103 475.6 25.1703 474.87 25.4503C474.31 25.6503 463.18 27.2603 462.29 27.2603C461.89 27.2603 461.73 25.8503 461.56 20.8103C461.36 14.7203 461.28 14.2403 460.43 13.3503C458.54 11.3303 455.51 12.3803 454.99 15.2403C454.87 15.9703 454.79 27.4203 454.87 40.6803L454.99 64.8303L455.96 65.6003C457.33 66.7303 459.51 66.4903 460.52 65.1603C461.17 64.2703 461.25 63.1403 461.41 55.3203C461.49 49.0303 461.65 46.4103 462.01 46.2903C462.66 46.0903 475.07 47.8203 475.48 48.1803C475.68 48.3803 475.64 52.4903 475.4 57.3303C475 66.6403 474.55 68.9403 472.5 72.2903C471.29 74.2303 468.15 76.6403 465.4 77.6503C462.34 78.8203 455.93 79.1403 452.9 78.2503L452.89 78.2803Z" fill="url(#paint1_linear_2441_6)"/>
<path d="M0.0699997 39.4906L0.189995 1.35059L10.23 1.39058C20.87 1.43058 23.01 1.67059 26.28 3.33059C30.23 5.31059 32.49 8.17058 33.66 12.5606C34.43 15.5006 34.55 26.3506 33.82 29.7006C32.93 33.9306 30.39 37.3206 27.17 38.6106C26.08 39.0106 26.04 39.0906 26.77 39.5406C30.44 41.7606 31.29 42.5606 32.58 45.0606C34.03 47.9606 34.64 51.3906 34.68 56.7906C34.68 67.1106 32.02 73.0006 26.09 75.8206C22.82 77.3506 19.92 77.6706 9.6 77.6706H0L0.0800018 39.4906H0.0699997ZM18.13 65.0506C20.23 64.0006 20.55 62.5106 20.55 53.7606C20.55 44.8906 20.27 43.4806 18.17 42.4306C17.52 42.0706 16.23 41.7806 15.31 41.7806H13.7V53.6706V65.5606H15.43C16.36 65.5606 17.57 65.3206 18.13 65.0406V65.0506ZM18.82 35.9006C20.23 35.0106 20.55 32.8806 20.55 24.7306C20.55 15.9406 20.27 14.6906 17.89 13.7206C17.08 13.4006 15.87 13.1606 15.15 13.2406L13.9 13.3606L13.78 25.2106L13.7 37.0606L15.8 36.7806C16.97 36.6206 18.34 36.2206 18.82 35.8906V35.9006Z" fill="url(#paint2_linear_2441_6)"/>
<path d="M61.96 77.3907C61.6 77.0707 61.6 3.0007 61.92 2.1207C62.12 1.5607 63.13 1.4707 68.98 1.4707H75.79V33.5207V65.5307L82.16 65.6507L88.49 65.7707V71.6207V77.4707L75.35 77.5907C68.13 77.6307 62.13 77.5507 61.96 77.3907Z" fill="url(#paint3_linear_2441_6)"/>
<path d="M109.25 77.3503C109.25 77.1503 109.49 75.0502 109.81 72.5902C110.86 64.9302 114.08 37.5903 117.55 7.48025L118.24 1.55026L127.55 1.39025C132.67 1.31025 137.02 1.35025 137.19 1.47025C137.51 1.75025 138.36 8.49026 141.71 36.9503C142.72 45.7003 144.25 58.3203 145.1 64.9703C145.95 71.6203 146.55 77.1903 146.47 77.3903C146.39 77.5503 143.16 77.6702 139.33 77.6702H132.35L131.87 72.7503C131.63 70.0103 131.31 66.7403 131.14 65.4503L130.9 63.1103L127.84 63.2303L124.78 63.3503L124.26 69.2003C123.98 72.4303 123.66 75.6503 123.53 76.3803L123.33 77.6702H116.31C112.44 77.6702 109.25 77.5103 109.25 77.3503ZM130.46 56.2203C130.14 53.4003 128.2 31.3003 128.2 30.3403C128.2 29.8603 128.08 29.6903 127.84 29.9403C127.68 30.1403 127.03 36.3103 126.43 43.6103C125.83 50.9503 125.22 57.2402 125.14 57.6403C124.94 58.2402 125.26 58.3303 127.8 58.3303H130.7L130.46 56.2303V56.2203Z" fill="url(#paint4_linear_2441_6)"/>
<path d="M232.62 39.5707V1.4707H239.68H246.74L246.66 7.4007C246.42 19.5807 246.74 37.1107 247.14 36.7107C247.38 36.4707 248.87 28.4407 250.45 18.8907L253.31 1.4707H260.12C263.83 1.4707 266.89 1.6307 266.89 1.7907C266.89 2.1907 261.89 23.4407 259.63 32.6307L257.98 39.4007L260.64 50.1207C262.78 58.7507 266.89 76.7707 266.89 77.5007C266.89 77.5807 263.83 77.6607 260.12 77.6607H253.35L250.49 60.5207C248.88 51.0907 247.39 43.0607 247.18 42.6607C246.9 42.1807 246.74 47.0107 246.66 58.1007C246.62 66.9707 246.58 74.9507 246.54 75.8407V77.4507L239.61 77.5707L232.63 77.6507V39.5507L232.62 39.5707Z" fill="url(#paint5_linear_2441_6)"/>
<path d="M338.58 70.3404C338.38 57.8004 338.5 1.92043 338.74 1.68043C338.86 1.52043 343.86 1.44043 349.79 1.44043C361.68 1.44043 363.1 1.64043 366.56 3.86043C369.02 5.43043 371.12 8.62043 371.88 11.9604C372.77 15.5904 373.21 36.5104 372.57 41.8004C371.84 47.6904 369.71 51.7204 366.28 53.7304C363.66 55.2204 360.76 55.9104 356.52 55.9104H352.77L352.73 58.4504C352.69 59.8204 352.65 61.9604 352.61 63.1704C352.57 64.3804 352.53 68.1704 352.45 71.5604L352.37 77.6904H345.56H338.71L338.59 70.3504L338.58 70.3404ZM357.65 42.7604L358.62 41.7104L358.74 29.5704C358.86 16.2604 358.66 14.6104 356.8 13.6804C356.24 13.4004 355.11 13.1604 354.3 13.1604H352.77L352.73 18.5204C352.73 21.4204 352.65 26.1004 352.53 28.8804C352.41 31.6604 352.41 36.1404 352.57 38.8804L352.85 43.8004H354.74C356.27 43.8004 356.84 43.6004 357.64 42.7504L357.65 42.7604Z" fill="url(#paint6_linear_2441_6)"/>
<path d="M399.22 39.4905L399.34 1.27051L405.99 1.43051C409.66 1.47051 412.72 1.63051 412.84 1.71051C412.92 1.83051 413 18.8905 413.04 39.6905V77.4705L406.06 77.5905L399.13 77.6705L399.21 39.4905H399.22Z" fill="url(#paint7_linear_2441_6)"/>
<path d="M502.44 39.4905L502.56 1.27051H508.61C511.96 1.27051 514.98 1.31051 515.38 1.39051C516.03 1.51051 516.07 2.52051 516.07 15.3005C516.07 29.5705 516.39 37.2305 516.92 36.6705C517.24 36.3505 518.65 28.7705 520.06 19.8205C522.32 5.51051 522.96 1.72051 523.04 1.64051C523.24 1.44051 536.22 1.36051 536.43 1.56051C536.67 1.80051 536.47 2.77051 531.55 23.3705L527.68 39.3805L529.94 48.5705C532.8 60.3405 536.23 75.7405 536.23 76.8305C536.23 77.6405 536.03 77.6805 529.58 77.6805C524.58 77.6805 522.85 77.5605 522.77 77.2005C522.69 76.9205 521.4 69.0605 519.91 59.7405C518.42 50.4305 517.09 42.6405 516.93 42.4805C516.45 42.0005 516.08 51.9105 516.08 65.4605V77.6805H509.23H502.38L502.46 39.5005L502.44 39.4905Z" fill="url(#paint8_linear_2441_6)"/>
<path d="M132.389 128.394C130.169 127.584 128.959 126.704 127.629 124.844C126.059 122.704 125.489 120.454 125.739 117.624C125.979 115.004 126.709 113.434 128.479 111.654C130.289 109.844 131.909 109.114 134.689 108.914C138.239 108.634 140.369 109.314 142.629 111.574C148.029 116.974 145.899 126.214 138.759 128.344C136.299 129.074 134.369 129.074 132.389 128.384V128.394ZM138.279 124.764C140.339 123.914 141.509 121.984 141.669 119.084C141.829 116.264 140.979 114.564 138.849 113.234C137.079 112.144 133.929 112.144 132.159 113.234C130.669 114.164 129.259 116.784 129.259 118.674C129.259 121.214 131.319 124.154 133.699 125.044C134.829 125.444 136.929 125.324 138.299 124.764H138.279Z" fill="#A0A0A0"/>
<path d="M203.389 128.355C202.379 128.035 200.89 127.185 200.04 126.465L198.51 125.135L199.68 124.045L200.81 122.955L202.579 124.125C204.799 125.615 207.78 125.815 209.07 124.525C210.72 122.875 209.59 121.295 205.97 120.255C201.09 118.845 199.4 117.315 199.4 114.325C199.4 109.765 205.209 107.345 210.169 109.805C213.189 111.335 213.479 111.825 212.109 113.235L210.979 114.405L209.889 113.595C207.629 111.905 203.76 111.945 203.24 113.675C202.84 114.885 203.97 115.815 207.07 116.815C208.52 117.295 210.259 118.025 210.979 118.465C215.129 121.005 213.84 127.255 208.84 128.505C206.66 129.065 205.7 129.025 203.4 128.345L203.389 128.355Z" fill="#A0A0A0"/>
<path d="M414.059 128.234C410.469 126.984 408.249 124.644 407.449 121.214C405.879 114.764 410.509 108.794 417.129 108.794C419.509 108.794 422.329 109.844 423.899 111.294C425.069 112.424 425.029 112.864 423.499 113.914L422.249 114.804L421.079 113.794C419.589 112.584 418.379 112.264 416.079 112.544C414.099 112.744 412.649 113.834 411.599 115.814C410.749 117.464 411.039 121.174 412.199 122.794C414.219 125.614 418.249 126.104 421.109 123.804L422.599 122.594L424.009 123.764L425.379 124.934L423.809 126.344C422.199 127.754 419.089 128.964 417.159 128.964C416.599 128.924 415.179 128.604 414.059 128.234Z" fill="#A0A0A0"/>
<path d="M476.789 128.114C475.699 126.134 477.599 124.244 479.569 125.334C480.619 125.854 480.779 128.314 479.769 128.724C478.479 129.204 477.229 128.964 476.789 128.124V128.114Z" fill="#A0A0A0"/>
<path d="M56.0694 128.075C55.9894 127.795 55.7494 126.905 55.5494 126.135C55.3094 125.365 54.2194 121.575 53.0894 117.705C51.9594 113.835 51.0294 110.325 51.0294 109.925C51.0294 109.325 51.3494 109.195 52.7594 109.195H54.4894L55.6194 113.545C56.2694 115.925 57.1494 119.025 57.5994 120.475C58.5294 123.575 58.3294 123.905 60.9094 115.235L62.5994 109.385L64.4494 109.265L66.2994 109.145L66.9494 111.285C70.0894 122.055 70.5394 123.345 70.8594 122.495C71.1394 121.765 71.9094 118.825 74.0494 110.725C74.4094 109.235 74.4894 109.195 76.2294 109.195C77.4394 109.195 78.0394 109.355 78.0394 109.715C78.0394 110.155 77.2694 112.905 73.3994 126.445L72.7494 128.545H70.6494H68.5494L67.6594 125.605C65.0794 116.895 64.6394 115.605 64.3894 115.845C64.2294 115.965 63.2594 118.865 62.2494 122.215L60.3594 128.345L58.2994 128.465C56.8894 128.545 56.1594 128.425 56.0394 128.065L56.0694 128.075Z" fill="#A0A0A0"/>
<path d="M93.3595 118.884V109.204H95.1695H96.9795V113.034V116.864H101.619H106.259V113.034V109.204H108.069H109.879V118.884V128.564H108.069H106.259V124.534V120.504H101.619H96.9795V124.534V128.564H95.1695H93.3595V118.884Z" fill="#A0A0A0"/>
<path d="M180.049 118.884V109.204H181.619C182.509 109.204 183.309 109.364 183.469 109.604C183.589 109.804 183.589 114.164 183.429 119.284L183.149 128.554H181.579H180.049V118.874V118.884Z" fill="#A0A0A0"/>
<path d="M252.219 120.494V112.434H249.159H246.139L246.259 110.944L246.379 109.414L254.159 109.294L261.899 109.214V110.824V112.434H258.879H255.859V120.494V128.554H254.049H252.239V120.494H252.219Z" fill="#A0A0A0"/>
<path d="M276.809 118.884V109.204H278.619H280.429V113.034V116.864H284.869H289.309V114.284C289.309 112.874 289.429 111.144 289.549 110.454C289.789 109.244 289.909 109.164 291.489 109.284L293.139 109.404V118.874L293.099 128.344L291.449 128.464L289.839 128.584L289.559 124.434C289.399 122.174 289.239 120.244 289.159 120.204C289.119 120.164 287.139 120.244 284.769 120.364L280.459 120.604V124.594V128.544H278.649H276.839V118.864L276.809 118.884Z" fill="#A0A0A0"/>
<path d="M309.549 119.005L309.669 109.405L316.439 109.285C323.779 109.165 323.979 109.245 323.419 111.425C323.179 112.435 323.179 112.435 318.139 112.435H313.099V114.655V116.875H317.369H321.599L321.479 118.605L321.359 120.295L317.209 120.415L313.059 120.535L313.179 122.835L313.299 125.135L318.459 125.255L323.579 125.375V126.945V128.555H316.519H309.459L309.539 118.995L309.549 119.005Z" fill="#A0A0A0"/>
<path d="M357.769 125.454C357.689 123.764 357.689 119.404 357.769 115.774L357.929 109.204H362.849C366.839 109.204 368.009 109.324 369.139 109.974C372.809 111.914 373.659 116.824 370.869 119.774C369.219 121.544 368.609 121.754 364.739 122.034L361.269 122.314L361.149 125.454L361.029 128.554H359.499H357.929L357.769 125.454ZM366.679 118.434C368.129 117.914 368.739 117.024 368.739 115.294C368.739 113.404 367.169 112.434 364.099 112.434H361.599L361.359 115.374C361.239 117.314 361.319 118.354 361.639 118.564C362.329 119.004 365.229 118.924 366.679 118.444V118.434Z" fill="#A0A0A0"/>
<path d="M388.009 126.864C387.889 125.894 387.849 121.584 387.849 117.264L387.889 109.404H389.699H391.509L391.389 118.474C391.349 123.474 391.309 127.784 391.309 128.074C391.309 128.354 390.749 128.554 389.739 128.554C388.209 128.554 388.169 128.514 388.009 126.864Z" fill="#A0A0A0"/>
<path d="M441.309 118.884V109.204H443.119H444.929V113.354L444.969 117.464L448.919 113.354L452.869 109.204H454.969C457.469 109.204 457.469 109.204 453.879 113.194C452.509 114.724 451.379 116.134 451.379 116.334C451.379 116.494 452.029 117.064 452.789 117.584C455.209 119.114 457.429 123.754 457.429 127.224C457.429 128.514 457.389 128.554 455.659 128.554H453.929L453.689 126.574C453.369 123.994 452.159 121.614 450.459 120.324C448.729 118.994 448.279 118.994 446.429 120.524L444.939 121.734V125.164V128.554H443.129H441.319V118.874L441.309 118.884Z" fill="#A0A0A0"/>
<path d="M476.789 122.225C476.789 120.935 477.109 120.455 479.169 118.515C481.789 116.015 482.189 115.285 481.669 113.875C480.819 111.695 477.799 111.695 475.459 113.955L474.369 115.005L473.079 113.755L471.789 112.465L473.279 111.055C476.509 108.035 481.549 108.075 484.129 111.135C486.469 113.915 485.659 117.745 482.279 120.125C481.269 120.855 480.259 121.935 480.059 122.585C479.739 123.555 479.459 123.715 478.249 123.715C476.839 123.715 476.799 123.675 476.799 122.225H476.789Z" fill="#A0A0A0"/>
<defs>
<linearGradient id="paint0_linear_2441_6" x1="188.545" y1="0.0224609" x2="188.545" y2="78.7937" gradientUnits="userSpaceOnUse">
<stop offset="0.201923" stop-color="white"/>
<stop offset="0.5" stop-color="#9C9C9C"/>
<stop offset="0.802885" stop-color="white"/>
</linearGradient>
<linearGradient id="paint1_linear_2441_6" x1="458.168" y1="0" x2="458.168" y2="78.7608" gradientUnits="userSpaceOnUse">
<stop offset="0.201923" stop-color="white"/>
<stop offset="0.5" stop-color="#9C9C9C"/>
<stop offset="0.802885" stop-color="white"/>
</linearGradient>
<linearGradient id="paint2_linear_2441_6" x1="17.34" y1="1.35059" x2="17.34" y2="77.6706" gradientUnits="userSpaceOnUse">
<stop offset="0.201923" stop-color="white"/>
<stop offset="0.5" stop-color="#9C9C9C"/>
<stop offset="0.802885" stop-color="white"/>
</linearGradient>
<linearGradient id="paint3_linear_2441_6" x1="75.0874" y1="1.4707" x2="75.0874" y2="77.6009" gradientUnits="userSpaceOnUse">
<stop offset="0.201923" stop-color="white"/>
<stop offset="0.5" stop-color="#9C9C9C"/>
<stop offset="0.802885" stop-color="white"/>
</linearGradient>
<linearGradient id="paint4_linear_2441_6" x1="127.864" y1="1.34863" x2="127.864" y2="77.6702" gradientUnits="userSpaceOnUse">
<stop offset="0.201923" stop-color="white"/>
<stop offset="0.5" stop-color="#9C9C9C"/>
<stop offset="0.802885" stop-color="white"/>
</linearGradient>
<linearGradient id="paint5_linear_2441_6" x1="249.755" y1="1.4707" x2="249.755" y2="77.6607" gradientUnits="userSpaceOnUse">
<stop offset="0.201923" stop-color="white"/>
<stop offset="0.5" stop-color="#9C9C9C"/>
<stop offset="0.802885" stop-color="white"/>
</linearGradient>
<linearGradient id="paint6_linear_2441_6" x1="355.676" y1="1.44043" x2="355.676" y2="77.6904" gradientUnits="userSpaceOnUse">
<stop offset="0.201923" stop-color="white"/>
<stop offset="0.5" stop-color="#9C9C9C"/>
<stop offset="0.802885" stop-color="white"/>
</linearGradient>
<linearGradient id="paint7_linear_2441_6" x1="406.085" y1="1.27051" x2="406.085" y2="77.6705" gradientUnits="userSpaceOnUse">
<stop offset="0.201923" stop-color="white"/>
<stop offset="0.5" stop-color="#9C9C9C"/>
<stop offset="0.802885" stop-color="white"/>
</linearGradient>
<linearGradient id="paint8_linear_2441_6" x1="519.437" y1="1.27051" x2="519.437" y2="77.6805" gradientUnits="userSpaceOnUse">
<stop offset="0.201923" stop-color="white"/>
<stop offset="0.5" stop-color="#9C9C9C"/>
<stop offset="0.802885" stop-color="white"/>
</linearGradient>
</defs>
</svg>
